<?xml version="1.0" encoding="utf-8" standalone="no"?>
<!DOCTYPE svg PUBLIC "-//W3C//DTD SVG 1.1//EN"
  "http://www.w3.org/Graphics/SVG/1.1/DTD/svg11.dtd">
<!-- Created with matplotlib (http://matplotlib.org/) -->
<svg height="360pt" version="1.1" viewBox="0 0 360 360" width="360pt" xmlns="http://www.w3.org/2000/svg" xmlns:xlink="http://www.w3.org/1999/xlink">
 <defs>
  <style type="text/css">
*{stroke-linecap:butt;stroke-linejoin:round;}
  </style>
 </defs>
 <g id="figure_1">
  <g id="patch_1">
   <path d="M 0 360 
L 360 360 
L 360 0 
L 0 0 
z
" style="fill:#ffffff;"/>
  </g>
  <g id="axes_1">
   <g id="patch_2">
    <path d="M 45 320.4 
L 324 320.4 
L 324 43.2 
L 45 43.2 
z
" style="fill:#ffffff;"/>
   </g>
   <g id="matplotlib.axis_1">
    <g id="xtick_1">
     <g id="line2d_1">
      <path clip-path="url(#p61e580183a)" d="M 45 320.4 
L 45 43.2 
" style="fill:none;stroke:#b0b0b0;stroke-linecap:square;stroke-width:0.8;"/>
     </g>
     <g id="line2d_2">
      <defs>
       <path d="M 0 0 
L 0 3.5 
" id="mfe61096982" style="stroke:#000000;stroke-width:0.8;"/>
      </defs>
      <g>
       <use style="stroke:#000000;stroke-width:0.8;" x="45" xlink:href="#mfe61096982" y="320.4"/>
      </g>
     </g>
     <g id="text_1">
      <!-- −3 -->
      <defs>
       <path d="M 10.59375 35.5 
L 73.1875 35.5 
L 73.1875 27.203125 
L 10.59375 27.203125 
z
" id="DejaVuSans-2212"/>
       <path d="M 40.578125 39.3125 
Q 47.65625 37.796875 51.625 33 
Q 55.609375 28.21875 55.609375 21.1875 
Q 55.609375 10.40625 48.1875 4.484375 
Q 40.765625 -1.421875 27.09375 -1.421875 
Q 22.515625 -1.421875 17.65625 -0.515625 
Q 12.796875 0.390625 7.625 2.203125 
L 7.625 11.71875 
Q 11.71875 9.328125 16.59375 8.109375 
Q 21.484375 6.890625 26.8125 6.890625 
Q 36.078125 6.890625 40.9375 10.546875 
Q 45.796875 14.203125 45.796875 21.1875 
Q 45.796875 27.640625 41.28125 31.265625 
Q 36.765625 34.90625 28.71875 34.90625 
L 20.21875 34.90625 
L 20.21875 43.015625 
L 29.109375 43.015625 
Q 36.375 43.015625 40.234375 45.921875 
Q 44.09375 48.828125 44.09375 54.296875 
Q 44.09375 59.90625 40.109375 62.90625 
Q 36.140625 65.921875 28.71875 65.921875 
Q 24.65625 65.921875 20.015625 65.03125 
Q 15.375 64.15625 9.8125 62.3125 
L 9.8125 71.09375 
Q 15.4375 72.65625 20.34375 73.4375 
Q 25.25 74.21875 29.59375 74.21875 
Q 40.828125 74.21875 47.359375 69.109375 
Q 53.90625 64.015625 53.90625 55.328125 
Q 53.90625 49.265625 50.4375 45.09375 
Q 46.96875 40.921875 40.578125 39.3125 
z
" id="DejaVuSans-33"/>
      </defs>
      <g transform="translate(37.628906 334.998438)scale(0.1 -0.1)">
       <use xlink:href="#DejaVuSans-2212"/>
       <use x="83.789062" xlink:href="#DejaVuSans-33"/>
      </g>
     </g>
    </g>
    <g id="xtick_2">
     <g id="line2d_3">
      <path clip-path="url(#p61e580183a)" d="M 91.5 320.4 
L 91.5 43.2 
" style="fill:none;stroke:#b0b0b0;stroke-linecap:square;stroke-width:0.8;"/>
     </g>
     <g id="line2d_4">
      <g>
       <use style="stroke:#000000;stroke-width:0.8;" x="91.5" xlink:href="#mfe61096982" y="320.4"/>
      </g>
     </g>
     <g id="text_2">
      <!-- −2 -->
      <defs>
       <path d="M 19.1875 8.296875 
L 53.609375 8.296875 
L 53.609375 0 
L 7.328125 0 
L 7.328125 8.296875 
Q 12.9375 14.109375 22.625 23.890625 
Q 32.328125 33.6875 34.8125 36.53125 
Q 39.546875 41.84375 41.421875 45.53125 
Q 43.3125 49.21875 43.3125 52.78125 
Q 43.3125 58.59375 39.234375 62.25 
Q 35.15625 65.921875 28.609375 65.921875 
Q 23.96875 65.921875 18.8125 64.3125 
Q 13.671875 62.703125 7.8125 59.421875 
L 7.8125 69.390625 
Q 13.765625 71.78125 18.9375 73 
Q 24.125 74.21875 28.421875 74.21875 
Q 39.75 74.21875 46.484375 68.546875 
Q 53.21875 62.890625 53.21875 53.421875 
Q 53.21875 48.921875 51.53125 44.890625 
Q 49.859375 40.875 45.40625 35.40625 
Q 44.1875 33.984375 37.640625 27.21875 
Q 31.109375 20.453125 19.1875 8.296875 
z
" id="DejaVuSans-32"/>
      </defs>
      <g transform="translate(84.128906 334.998438)scale(0.1 -0.1)">
       <use xlink:href="#DejaVuSans-2212"/>
       <use x="83.789062" xlink:href="#DejaVuSans-32"/>
      </g>
     </g>
    </g>
    <g id="xtick_3">
     <g id="line2d_5">
      <path clip-path="url(#p61e580183a)" d="M 138 320.4 
L 138 43.2 
" style="fill:none;stroke:#b0b0b0;stroke-linecap:square;stroke-width:0.8;"/>
     </g>
     <g id="line2d_6">
      <g>
       <use style="stroke:#000000;stroke-width:0.8;" x="138" xlink:href="#mfe61096982" y="320.4"/>
      </g>
     </g>
     <g id="text_3">
      <!-- −1 -->
      <defs>
       <path d="M 12.40625 8.296875 
L 28.515625 8.296875 
L 28.515625 63.921875 
L 10.984375 60.40625 
L 10.984375 69.390625 
L 28.421875 72.90625 
L 38.28125 72.90625 
L 38.28125 8.296875 
L 54.390625 8.296875 
L 54.390625 0 
L 12.40625 0 
z
" id="DejaVuSans-31"/>
      </defs>
      <g transform="translate(130.628906 334.998438)scale(0.1 -0.1)">
       <use xlink:href="#DejaVuSans-2212"/>
       <use x="83.789062" xlink:href="#DejaVuSans-31"/>
      </g>
     </g>
    </g>
    <g id="xtick_4">
     <g id="line2d_7">
      <path clip-path="url(#p61e580183a)" d="M 184.5 320.4 
L 184.5 43.2 
" style="fill:none;stroke:#b0b0b0;stroke-linecap:square;stroke-width:0.8;"/>
     </g>
     <g id="line2d_8">
      <g>
       <use style="stroke:#000000;stroke-width:0.8;" x="184.5" xlink:href="#mfe61096982" y="320.4"/>
      </g>
     </g>
     <g id="text_4">
      <!-- 0 -->
      <defs>
       <path d="M 31.78125 66.40625 
Q 24.171875 66.40625 20.328125 58.90625 
Q 16.5 51.421875 16.5 36.375 
Q 16.5 21.390625 20.328125 13.890625 
Q 24.171875 6.390625 31.78125 6.390625 
Q 39.453125 6.390625 43.28125 13.890625 
Q 47.125 21.390625 47.125 36.375 
Q 47.125 51.421875 43.28125 58.90625 
Q 39.453125 66.40625 31.78125 66.40625 
z
M 31.78125 74.21875 
Q 44.046875 74.21875 50.515625 64.515625 
Q 56.984375 54.828125 56.984375 36.375 
Q 56.984375 17.96875 50.515625 8.265625 
Q 44.046875 -1.421875 31.78125 -1.421875 
Q 19.53125 -1.421875 13.0625 8.265625 
Q 6.59375 17.96875 6.59375 36.375 
Q 6.59375 54.828125 13.0625 64.515625 
Q 19.53125 74.21875 31.78125 74.21875 
z
" id="DejaVuSans-30"/>
      </defs>
      <g transform="translate(181.31875 334.998438)scale(0.1 -0.1)">
       <use xlink:href="#DejaVuSans-30"/>
      </g>
     </g>
    </g>
    <g id="xtick_5">
     <g id="line2d_9">
      <path clip-path="url(#p61e580183a)" d="M 231 320.4 
L 231 43.2 
" style="fill:none;stroke:#b0b0b0;stroke-linecap:square;stroke-width:0.8;"/>
     </g>
     <g id="line2d_10">
      <g>
       <use style="stroke:#000000;stroke-width:0.8;" x="231" xlink:href="#mfe61096982" y="320.4"/>
      </g>
     </g>
     <g id="text_5">
      <!-- 1 -->
      <g transform="translate(227.81875 334.998438)scale(0.1 -0.1)">
       <use xlink:href="#DejaVuSans-31"/>
      </g>
     </g>
    </g>
    <g id="xtick_6">
     <g id="line2d_11">
      <path clip-path="url(#p61e580183a)" d="M 277.5 320.4 
L 277.5 43.2 
" style="fill:none;stroke:#b0b0b0;stroke-linecap:square;stroke-width:0.8;"/>
     </g>
     <g id="line2d_12">
      <g>
       <use style="stroke:#000000;stroke-width:0.8;" x="277.5" xlink:href="#mfe61096982" y="320.4"/>
      </g>
     </g>
     <g id="text_6">
      <!-- 2 -->
      <g transform="translate(274.31875 334.998438)scale(0.1 -0.1)">
       <use xlink:href="#DejaVuSans-32"/>
      </g>
     </g>
    </g>
    <g id="xtick_7">
     <g id="line2d_13">
      <path clip-path="url(#p61e580183a)" d="M 324 320.4 
L 324 43.2 
" style="fill:none;stroke:#b0b0b0;stroke-linecap:square;stroke-width:0.8;"/>
     </g>
     <g id="line2d_14">
      <g>
       <use style="stroke:#000000;stroke-width:0.8;" x="324" xlink:href="#mfe61096982" y="320.4"/>
      </g>
     </g>
     <g id="text_7">
      <!-- 3 -->
      <g transform="translate(320.81875 334.998438)scale(0.1 -0.1)">
       <use xlink:href="#DejaVuSans-33"/>
      </g>
     </g>
    </g>
    <g id="text_8">
     <!-- $d - d_i$ (m) -->
     <defs>
      <path d="M 41.796875 8.203125 
Q 38.1875 3.46875 33.25 1.015625 
Q 28.328125 -1.421875 22.3125 -1.421875 
Q 14.109375 -1.421875 9.34375 4.171875 
Q 4.59375 9.765625 4.59375 19.484375 
Q 4.59375 27.59375 7.46875 34.9375 
Q 10.359375 42.28125 15.828125 48.09375 
Q 19.4375 51.953125 23.96875 53.96875 
Q 28.515625 56 33.5 56 
Q 38.765625 56 42.796875 53.453125 
Q 46.828125 50.921875 49.03125 46.1875 
L 54.890625 75.984375 
L 63.921875 75.984375 
L 49.125 0 
L 40.09375 0 
z
M 13.921875 21.09375 
Q 13.921875 14.015625 17.109375 10.0625 
Q 20.3125 6.109375 25.984375 6.109375 
Q 30.171875 6.109375 33.765625 8.125 
Q 37.359375 10.15625 40.09375 14.109375 
Q 42.96875 18.21875 44.625 23.578125 
Q 46.296875 28.953125 46.296875 34.1875 
Q 46.296875 40.96875 43.09375 44.765625 
Q 39.890625 48.578125 34.28125 48.578125 
Q 30.03125 48.578125 26.359375 46.578125 
Q 22.703125 44.578125 20.125 40.828125 
Q 17.28125 36.765625 15.59375 31.390625 
Q 13.921875 26.03125 13.921875 21.09375 
z
" id="DejaVuSans-Oblique-64"/>
      <path d="M 18.3125 75.984375 
L 27.296875 75.984375 
L 25.09375 64.59375 
L 16.109375 64.59375 
z
M 14.203125 54.6875 
L 23.1875 54.6875 
L 12.5 0 
L 3.515625 0 
z
" id="DejaVuSans-Oblique-69"/>
      <path id="DejaVuSans-20"/>
      <path d="M 31 75.875 
Q 24.46875 64.65625 21.28125 53.65625 
Q 18.109375 42.671875 18.109375 31.390625 
Q 18.109375 20.125 21.3125 9.0625 
Q 24.515625 -2 31 -13.1875 
L 23.1875 -13.1875 
Q 15.875 -1.703125 12.234375 9.375 
Q 8.59375 20.453125 8.59375 31.390625 
Q 8.59375 42.28125 12.203125 53.3125 
Q 15.828125 64.359375 23.1875 75.875 
z
" id="DejaVuSans-28"/>
      <path d="M 52 44.1875 
Q 55.375 50.25 60.0625 53.125 
Q 64.75 56 71.09375 56 
Q 79.640625 56 84.28125 50.015625 
Q 88.921875 44.046875 88.921875 33.015625 
L 88.921875 0 
L 79.890625 0 
L 79.890625 32.71875 
Q 79.890625 40.578125 77.09375 44.375 
Q 74.3125 48.1875 68.609375 48.1875 
Q 61.625 48.1875 57.5625 43.546875 
Q 53.515625 38.921875 53.515625 30.90625 
L 53.515625 0 
L 44.484375 0 
L 44.484375 32.71875 
Q 44.484375 40.625 41.703125 44.40625 
Q 38.921875 48.1875 33.109375 48.1875 
Q 26.21875 48.1875 22.15625 43.53125 
Q 18.109375 38.875 18.109375 30.90625 
L 18.109375 0 
L 9.078125 0 
L 9.078125 54.6875 
L 18.109375 54.6875 
L 18.109375 46.1875 
Q 21.1875 51.21875 25.484375 53.609375 
Q 29.78125 56 35.6875 56 
Q 41.65625 56 45.828125 52.96875 
Q 50 49.953125 52 44.1875 
z
" id="DejaVuSans-6d"/>
      <path d="M 8.015625 75.875 
L 15.828125 75.875 
Q 23.140625 64.359375 26.78125 53.3125 
Q 30.421875 42.28125 30.421875 31.390625 
Q 30.421875 20.453125 26.78125 9.375 
Q 23.140625 -1.703125 15.828125 -13.1875 
L 8.015625 -13.1875 
Q 14.5 -2 17.703125 9.0625 
Q 20.90625 20.125 20.90625 31.390625 
Q 20.90625 42.671875 17.703125 53.65625 
Q 14.5 64.65625 8.015625 75.875 
z
" id="DejaVuSans-29"/>
     </defs>
     <g transform="translate(160.5 348.676562)scale(0.1 -0.1)">
      <use transform="translate(0 0.015625)" xlink:href="#DejaVuSans-Oblique-64"/>
      <use transform="translate(82.958984 0.015625)" xlink:href="#DejaVuSans-2212"/>
      <use transform="translate(186.230469 0.015625)" xlink:href="#DejaVuSans-Oblique-64"/>
      <use transform="translate(249.707031 -16.390625)scale(0.7)" xlink:href="#DejaVuSans-Oblique-69"/>
      <use transform="translate(271.889648 0.015625)" xlink:href="#DejaVuSans-20"/>
      <use transform="translate(303.676758 0.015625)" xlink:href="#DejaVuSans-28"/>
      <use transform="translate(342.69043 0.015625)" xlink:href="#DejaVuSans-6d"/>
      <use transform="translate(440.102539 0.015625)" xlink:href="#DejaVuSans-29"/>
     </g>
    </g>
   </g>
   <g id="matplotlib.axis_2">
    <g id="ytick_1">
     <g id="line2d_15">
      <path clip-path="url(#p61e580183a)" d="M 45 320.4 
L 324 320.4 
" style="fill:none;stroke:#b0b0b0;stroke-linecap:square;stroke-width:0.8;"/>
     </g>
     <g id="line2d_16">
      <defs>
       <path d="M 0 0 
L -3.5 0 
" id="mab055c2bfe" style="stroke:#000000;stroke-width:0.8;"/>
      </defs>
      <g>
       <use style="stroke:#000000;stroke-width:0.8;" x="45" xlink:href="#mab055c2bfe" y="320.4"/>
      </g>
     </g>
     <g id="text_9">
      <!-- −30 -->
      <g transform="translate(16.895312 324.199219)scale(0.1 -0.1)">
       <use xlink:href="#DejaVuSans-2212"/>
       <use x="83.789062" xlink:href="#DejaVuSans-33"/>
       <use x="147.412109" xlink:href="#DejaVuSans-30"/>
      </g>
     </g>
    </g>
    <g id="ytick_2">
     <g id="line2d_17">
      <path clip-path="url(#p61e580183a)" d="M 45 274.2 
L 324 274.2 
" style="fill:none;stroke:#b0b0b0;stroke-linecap:square;stroke-width:0.8;"/>
     </g>
     <g id="line2d_18">
      <g>
       <use style="stroke:#000000;stroke-width:0.8;" x="45" xlink:href="#mab055c2bfe" y="274.2"/>
      </g>
     </g>
     <g id="text_10">
      <!-- −20 -->
      <g transform="translate(16.895312 277.999219)scale(0.1 -0.1)">
       <use xlink:href="#DejaVuSans-2212"/>
       <use x="83.789062" xlink:href="#DejaVuSans-32"/>
       <use x="147.412109" xlink:href="#DejaVuSans-30"/>
      </g>
     </g>
    </g>
    <g id="ytick_3">
     <g id="line2d_19">
      <path clip-path="url(#p61e580183a)" d="M 45 228 
L 324 228 
" style="fill:none;stroke:#b0b0b0;stroke-linecap:square;stroke-width:0.8;"/>
     </g>
     <g id="line2d_20">
      <g>
       <use style="stroke:#000000;stroke-width:0.8;" x="45" xlink:href="#mab055c2bfe" y="228"/>
      </g>
     </g>
     <g id="text_11">
      <!-- −10 -->
      <g transform="translate(16.895312 231.799219)scale(0.1 -0.1)">
       <use xlink:href="#DejaVuSans-2212"/>
       <use x="83.789062" xlink:href="#DejaVuSans-31"/>
       <use x="147.412109" xlink:href="#DejaVuSans-30"/>
      </g>
     </g>
    </g>
    <g id="ytick_4">
     <g id="line2d_21">
      <path clip-path="url(#p61e580183a)" d="M 45 181.8 
L 324 181.8 
" style="fill:none;stroke:#b0b0b0;stroke-linecap:square;stroke-width:0.8;"/>
     </g>
     <g id="line2d_22">
      <g>
       <use style="stroke:#000000;stroke-width:0.8;" x="45" xlink:href="#mab055c2bfe" y="181.8"/>
      </g>
     </g>
     <g id="text_12">
      <!-- 0 -->
      <g transform="translate(31.6375 185.599219)scale(0.1 -0.1)">
       <use xlink:href="#DejaVuSans-30"/>
      </g>
     </g>
    </g>
    <g id="ytick_5">
     <g id="line2d_23">
      <path clip-path="url(#p61e580183a)" d="M 45 135.6 
L 324 135.6 
" style="fill:none;stroke:#b0b0b0;stroke-linecap:square;stroke-width:0.8;"/>
     </g>
     <g id="line2d_24">
      <g>
       <use style="stroke:#000000;stroke-width:0.8;" x="45" xlink:href="#mab055c2bfe" y="135.6"/>
      </g>
     </g>
     <g id="text_13">
      <!-- 10 -->
      <g transform="translate(25.275 139.399219)scale(0.1 -0.1)">
       <use xlink:href="#DejaVuSans-31"/>
       <use x="63.623047" xlink:href="#DejaVuSans-30"/>
      </g>
     </g>
    </g>
    <g id="ytick_6">
     <g id="line2d_25">
      <path clip-path="url(#p61e580183a)" d="M 45 89.4 
L 324 89.4 
" style="fill:none;stroke:#b0b0b0;stroke-linecap:square;stroke-width:0.8;"/>
     </g>
     <g id="line2d_26">
      <g>
       <use style="stroke:#000000;stroke-width:0.8;" x="45" xlink:href="#mab055c2bfe" y="89.4"/>
      </g>
     </g>
     <g id="text_14">
      <!-- 20 -->
      <g transform="translate(25.275 93.199219)scale(0.1 -0.1)">
       <use xlink:href="#DejaVuSans-32"/>
       <use x="63.623047" xlink:href="#DejaVuSans-30"/>
      </g>
     </g>
    </g>
    <g id="ytick_7">
     <g id="line2d_27">
      <path clip-path="url(#p61e580183a)" d="M 45 43.2 
L 324 43.2 
" style="fill:none;stroke:#b0b0b0;stroke-linecap:square;stroke-width:0.8;"/>
     </g>
     <g id="line2d_28">
      <g>
       <use style="stroke:#000000;stroke-width:0.8;" x="45" xlink:href="#mab055c2bfe" y="43.2"/>
      </g>
     </g>
     <g id="text_15">
      <!-- 30 -->
      <g transform="translate(25.275 46.999219)scale(0.1 -0.1)">
       <use xlink:href="#DejaVuSans-33"/>
       <use x="63.623047" xlink:href="#DejaVuSans-30"/>
      </g>
     </g>
    </g>
    <g id="text_16">
     <!-- $s - s_i$ (m) -->
     <defs>
      <path d="M 50 53.078125 
L 48.296875 44.578125 
Q 44.734375 46.53125 40.765625 47.5 
Q 36.8125 48.484375 32.625 48.484375 
Q 25.53125 48.484375 21.453125 46.0625 
Q 17.390625 43.65625 17.390625 39.5 
Q 17.390625 34.671875 26.859375 32.078125 
Q 27.59375 31.890625 27.9375 31.78125 
L 30.8125 30.90625 
Q 39.796875 28.421875 42.796875 25.6875 
Q 45.796875 22.953125 45.796875 18.21875 
Q 45.796875 9.515625 38.890625 4.046875 
Q 31.984375 -1.421875 20.796875 -1.421875 
Q 16.453125 -1.421875 11.671875 -0.578125 
Q 6.890625 0.25 1.125 2 
L 2.875 11.28125 
Q 7.8125 8.734375 12.59375 7.421875 
Q 17.390625 6.109375 21.78125 6.109375 
Q 28.375 6.109375 32.5 8.9375 
Q 36.625 11.765625 36.625 16.109375 
Q 36.625 20.796875 25.78125 23.6875 
L 24.859375 23.921875 
L 21.78125 24.703125 
Q 14.9375 26.515625 11.765625 29.46875 
Q 8.59375 32.421875 8.59375 37.015625 
Q 8.59375 45.75 15.15625 50.875 
Q 21.734375 56 33.015625 56 
Q 37.453125 56 41.671875 55.265625 
Q 45.90625 54.546875 50 53.078125 
z
" id="DejaVuSans-Oblique-73"/>
     </defs>
     <g transform="translate(10.815625 204.65)rotate(-90)scale(0.1 -0.1)">
      <use transform="translate(0 0.125)" xlink:href="#DejaVuSans-Oblique-73"/>
      <use transform="translate(71.582031 0.125)" xlink:href="#DejaVuSans-2212"/>
      <use transform="translate(174.853516 0.125)" xlink:href="#DejaVuSans-Oblique-73"/>
      <use transform="translate(226.953125 -16.28125)scale(0.7)" xlink:href="#DejaVuSans-Oblique-69"/>
      <use transform="translate(249.135742 0.125)" xlink:href="#DejaVuSans-20"/>
      <use transform="translate(280.922852 0.125)" xlink:href="#DejaVuSans-28"/>
      <use transform="translate(319.936523 0.125)" xlink:href="#DejaVuSans-6d"/>
      <use transform="translate(417.348633 0.125)" xlink:href="#DejaVuSans-29"/>
     </g>
    </g>
   </g>
   <g id="LineCollection_1">
    <path clip-path="url(#p61e580183a)" d="M 106.439819 76.630102 
L 110.351351 73.872096 
L 115.099099 70.799017 
L 120.126126 67.848418 
L 124.873874 65.326086 
L 129.900901 62.918275 
L 135.207207 60.650913 
L 139.954955 58.848537 
L 145.540541 56.990316 
L 150.567568 55.549334 
L 155.873874 54.258786 
L 160.900901 53.246589 
L 166.49628 52.356757 
L 171.513514 51.764647 
L 176.81982 51.348459 
L 182.405405 51.142037 
L 187.711712 51.164569 
L 193.297297 51.418109 
L 198.882883 51.909168 
L 204.189189 52.598657 
L 209.774775 53.561112 
L 215.081081 54.706881 
L 220.387387 56.084115 
L 225.693694 57.700619 
L 230.720721 59.460633 
L 236.306306 61.690031 
L 241.612613 64.089165 
L 246.408215 66.508108 
L 250.828829 68.960631 
L 255.855856 72.030101 
L 260.603604 75.223911 
L 265.072072 78.517279 
L 269.540541 82.116593 
L 273.72973 85.799217 
L 277.63964 89.538945 
L 281.381294 93.423423 
L 285.066956 97.585586 
L 288.531532 101.848383 
L 291.603604 105.958495 
L 294.437188 110.072072 
L 297.245064 114.511712 
L 299.981982 119.262159 
L 302.291795 123.668468 
L 304.657784 128.663063 
L 306.963964 134.144895 
L 308.645231 138.652252 
L 310.206555 143.369369 
L 311.791022 148.918919 
L 312.993289 153.913514 
L 314.087382 159.463063 
L 314.896767 164.735135 
L 315.486467 170.007207 
L 315.858675 175.279279 
L 316.019489 180.828829 
L 315.951362 186.100901 
L 315.648081 191.65045 
L 315.105983 197.2 
L 314.321786 202.74955 
L 313.290312 208.299099 
L 312.076291 213.571171 
L 310.544439 219.120721 
L 308.935326 224.115315 
L 306.881972 229.664865 
L 304.781507 234.659459 
L 302.291795 239.931532 
L 299.503537 245.203604 
L 296.566514 250.198198 
L 293.507501 254.915315 
L 290.354023 259.354955 
L 286.855856 263.858708 
L 283.504505 267.822267 
L 280.080223 271.563964 
L 276.226221 275.448649 
L 272.333333 279.062872 
L 268.118978 282.663063 
L 263.875727 285.992793 
L 259.644802 289.045045 
L 255.297297 291.926965 
L 250.27027 294.96202 
L 245.243243 297.702546 
L 240.495495 300.039618 
L 235.189189 302.378726 
L 230.441441 304.242873 
L 224.855856 306.170881 
L 219.27027 307.825268 
L 213.684685 309.216636 
L 208.099099 310.353411 
L 202.50372 311.243243 
L 197.486486 311.835353 
L 192.18018 312.251541 
L 186.594595 312.457963 
L 181.288288 312.435431 
L 175.702703 312.181891 
L 170.117117 311.690832 
L 164.810811 311.001343 
L 159.225225 310.038888 
L 153.918919 308.893119 
L 148.612613 307.515885 
L 143.306306 305.899381 
L 138.279279 304.139367 
L 132.693694 301.909969 
L 127.387387 299.510835 
L 122.591785 297.091892 
L 118.171171 294.639369 
L 113.144144 291.569899 
L 108.396396 288.376089 
L 103.927928 285.082721 
L 99.459459 281.483407 
L 95.27027 277.800783 
L 91.36036 274.061055 
L 87.618706 270.176577 
L 83.933044 266.014414 
L 80.468468 261.751617 
L 77.396396 257.641505 
L 74.562812 253.527928 
L 71.754936 249.088288 
L 69.018018 244.337841 
L 66.708205 239.931532 
L 64.342216 234.936937 
L 62.036036 229.455105 
L 60.354769 224.947748 
L 58.793445 220.230631 
L 57.208978 214.681081 
L 56.006711 209.686486 
L 54.912618 204.136937 
L 54.103233 198.864865 
L 53.513533 193.592793 
L 53.141325 188.320721 
L 52.980511 182.771171 
L 53.048638 177.499099 
L 53.351919 171.94955 
L 53.894017 166.4 
L 54.678214 160.85045 
L 55.709688 155.300901 
L 56.923709 150.028829 
L 58.455561 144.479279 
L 60.064674 139.484685 
L 62.118028 133.935135 
L 64.218493 128.940541 
L 66.708205 123.668468 
L 69.496463 118.396396 
L 72.433486 113.401802 
L 75.492499 108.684685 
L 78.645977 104.245045 
L 82.144144 99.741292 
L 83.689458 97.87359 
L 83.689458 97.87359 
" style="fill:none;stroke:#440154;stroke-width:1.5;"/>
   </g>
   <g id="LineCollection_2">
    <path clip-path="url(#p61e580183a)" d="M 245.129332 251.86551 
L 241.612613 254.724208 
L 237.953309 257.412613 
L 234.182787 259.90991 
L 230.441441 262.138684 
L 226.531532 264.225438 
L 222.144584 266.291892 
L 218.153153 267.938406 
L 213.684685 269.533069 
L 209.216216 270.877892 
L 204.747748 271.984318 
L 200.279279 272.861031 
L 195.531532 273.548077 
L 191.063063 273.97038 
L 186.594595 274.177393 
L 182.126126 274.170709 
L 177.657658 273.950396 
L 173.126098 273.506306 
L 168.720721 272.861031 
L 164.252252 271.984318 
L 159.783784 270.877892 
L 155.315315 269.533069 
L 151.126126 268.046089 
L 146.657658 266.20525 
L 142.468468 264.225438 
L 138.279279 261.981017 
L 134.369369 259.626799 
L 130.651073 257.135135 
L 127.108108 254.50753 
L 123.477477 251.52775 
L 120.126126 248.486609 
L 116.84895 245.203604 
L 113.83747 241.873874 
L 110.886135 238.266667 
L 108.117117 234.511408 
L 105.812698 231.052252 
L 103.480995 227.167568 
L 101.258692 223.005405 
L 99.299952 218.843243 
L 97.481632 214.403604 
L 96.014565 210.241441 
L 94.692173 205.801802 
L 93.668405 201.63964 
L 92.75396 196.922523 
L 92.122986 192.482883 
L 91.711872 188.043243 
L 91.516871 183.603604 
L 91.537055 179.163964 
L 91.77222 174.724324 
L 92.224737 170.284685 
L 92.896084 165.845045 
L 93.79297 161.405405 
L 94.921347 156.965766 
L 96.290003 152.526126 
L 97.910595 148.086486 
L 99.738739 143.777597 
L 101.539332 140.03964 
L 103.798327 135.877477 
L 106.167832 131.992793 
L 108.675676 128.298486 
L 111.320343 124.778378 
L 114.319472 121.171171 
L 117.380361 117.841441 
L 120.684685 114.585408 
L 124.036036 111.593357 
L 127.666667 108.661063 
L 131.44631 105.90991 
L 134.927928 103.620358 
L 138.837838 101.303698 
L 143.027027 99.095733 
L 147.216216 97.14963 
L 151.684685 95.343041 
L 155.873874 93.885439 
L 160.342342 92.571578 
L 164.531532 91.554415 
L 169.279279 90.64587 
L 173.747748 90.018966 
L 178.216216 89.610505 
L 182.684685 89.416763 
L 187.153153 89.436816 
L 191.621622 89.670464 
L 196.09009 90.120061 
L 200.558559 90.787077 
L 205.027027 91.678176 
L 209.495495 92.799274 
L 213.963964 94.159099 
L 218.432432 95.769236 
L 222.769302 97.585586 
L 226.531532 99.374562 
L 230.720721 101.618983 
L 234.630631 103.973201 
L 238.348927 106.464865 
L 241.891892 109.09247 
L 245.522523 112.07225 
L 248.873874 115.113391 
L 252.15105 118.396396 
L 255.16253 121.726126 
L 258.113865 125.333333 
L 260.882883 129.088592 
L 263.187302 132.547748 
L 265.519005 136.432432 
L 267.741308 140.594595 
L 269.700048 144.756757 
L 271.518368 149.196396 
L 272.985435 153.358559 
L 274.307827 157.798198 
L 275.331595 161.96036 
L 276.24604 166.677477 
L 276.877014 171.117117 
L 277.288128 175.556757 
L 277.483129 179.996396 
L 277.462945 184.436036 
L 277.22778 188.875676 
L 276.775263 193.315315 
L 276.103916 197.754955 
L 275.20703 202.194595 
L 274.078653 206.634234 
L 272.709997 211.073874 
L 271.089405 215.513514 
L 269.261261 219.822403 
L 267.460668 223.56036 
L 265.201673 227.722523 
L 262.832168 231.607207 
L 260.324324 235.301514 
L 257.679657 238.821622 
L 254.680528 242.428829 
L 254.523068 242.607895 
L 254.523068 242.607895 
" style="fill:none;stroke:#460a5d;stroke-width:1.5;"/>
   </g>
   <g id="LineCollection_3">
    <path clip-path="url(#p61e580183a)" d="M 230.480511 228.510265 
L 227.927928 230.863006 
L 224.855856 233.387462 
L 221.783784 235.621175 
L 218.432432 237.767028 
L 215.058117 239.654054 
L 211.626342 241.318919 
L 208.303003 242.706306 
L 204.747748 243.963031 
L 201.117117 245.016761 
L 197.486486 245.850438 
L 193.855856 246.472559 
L 189.945946 246.912516 
L 186.036036 247.119027 
L 182.126126 247.094404 
L 178.216216 246.837903 
L 174.306306 246.347143 
L 170.396396 245.616863 
L 166.52567 244.648649 
L 163.135135 243.592644 
L 159.504505 242.233334 
L 155.873874 240.621909 
L 152.395909 238.821622 
L 149.171171 236.907374 
L 146.099099 234.840103 
L 142.946075 232.43964 
L 140.040629 229.942342 
L 137.441441 227.438322 
L 134.874263 224.67027 
L 132.361812 221.618018 
L 130.138359 218.565766 
L 128.002253 215.236036 
L 126.136039 211.906306 
L 124.390165 208.299099 
L 122.907445 204.691892 
L 121.668338 201.084685 
L 120.660081 197.477477 
L 119.846847 193.741334 
L 119.288288 190.226106 
L 118.920477 186.655856 
L 118.746215 182.771171 
L 118.804066 178.886486 
L 119.095553 175.001802 
L 119.623712 171.117117 
L 120.330815 167.50991 
L 121.334112 163.625225 
L 122.500614 160.018018 
L 123.90671 156.410811 
L 125.569475 152.803604 
L 127.387387 149.411979 
L 129.394448 146.144144 
L 131.576577 143.018245 
L 133.924484 140.03964 
L 136.382448 137.264865 
L 139.144533 134.49009 
L 141.939142 131.992793 
L 144.981982 129.576225 
L 148.054054 127.415266 
L 151.417184 125.333333 
L 154.756757 123.527803 
L 158.387387 121.834725 
L 162.018018 120.399822 
L 165.648649 119.2053 
L 169.279279 118.237019 
L 173.189189 117.436522 
L 177.099099 116.877899 
L 181.009009 116.554971 
L 184.918919 116.464581 
L 188.828829 116.604519 
L 192.738739 116.977911 
L 196.648649 117.587778 
L 200.377423 118.396396 
L 203.90991 119.373704 
L 207.570917 120.616216 
L 211.000926 122.003604 
L 214.243243 123.527803 
L 217.594595 125.340112 
L 220.733538 127.275676 
L 223.909468 129.495495 
L 226.810811 131.782761 
L 229.603604 134.252934 
L 232.396396 137.030231 
L 234.90991 139.842658 
L 237.271767 142.814414 
L 239.422629 145.866667 
L 241.488617 149.196396 
L 243.290959 152.526126 
L 244.85466 155.855856 
L 246.29888 159.463063 
L 247.501159 163.07027 
L 248.475728 166.677477 
L 249.281423 170.562162 
L 249.843673 174.446847 
L 250.168698 178.331532 
L 250.259675 182.216216 
L 250.118828 186.100901 
L 249.743011 189.985586 
L 249.129184 193.87027 
L 248.315315 197.574988 
L 247.331662 201.084685 
L 246.081081 204.722072 
L 244.684685 208.129952 
L 243.150587 211.351351 
L 242.104968 213.315873 
L 242.104968 213.315873 
" style="fill:none;stroke:#3b518b;stroke-width:1.5;"/>
   </g>
   <g id="LineCollection_4">
    <path clip-path="url(#p61e580183a)" d="M 162.85422 146.639674 
L 165.369369 145.22827 
L 168.162162 143.915074 
L 171.038957 142.814414 
L 173.787804 141.981982 
L 176.81982 141.296341 
L 179.891892 140.839004 
L 182.963964 140.612224 
L 186.036036 140.612224 
L 189.108108 140.839004 
L 192.18018 141.296341 
L 195.252252 141.992512 
L 198.045045 142.84292 
L 200.859388 143.924324 
L 203.630631 145.22827 
L 206.242967 146.699099 
L 208.755932 148.363964 
L 211.171171 150.231708 
L 213.417654 152.248649 
L 215.63964 154.568603 
L 217.607663 156.965766 
L 219.363408 159.463063 
L 220.945946 162.114364 
L 222.261039 164.735135 
L 223.459459 167.642831 
L 224.331736 170.284685 
L 225.099771 173.336937 
L 225.624747 176.389189 
L 225.915779 179.441441 
L 225.977767 182.493694 
L 225.812132 185.545946 
L 225.414414 188.604225 
L 224.781596 191.65045 
L 223.989532 194.425225 
L 222.979224 197.2 
L 221.732658 199.974775 
L 220.225292 202.74955 
L 218.617125 205.246847 
L 216.733889 207.744144 
L 214.787749 209.963964 
L 212.530118 212.183784 
L 210.235047 214.126126 
L 207.81982 215.887284 
L 205.306306 217.457029 
L 202.513514 218.927522 
L 199.720721 220.141586 
L 196.927928 221.123022 
L 193.855856 221.954221 
L 190.783784 222.540563 
L 187.711712 222.892469 
L 184.63964 223.015788 
L 181.567568 222.913059 
L 178.495495 222.582141 
L 175.423423 222.017504 
L 172.351351 221.209132 
L 169.509116 220.230631 
L 166.765766 219.059987 
L 163.972973 217.616558 
L 161.450876 216.068468 
L 158.945946 214.267674 
L 156.711712 212.402301 
L 154.476069 210.241441 
L 152.494371 208.021622 
L 150.567568 205.509821 
L 148.891892 202.945216 
L 147.405827 200.252252 
L 146.099099 197.391114 
L 145.10133 194.702703 
L 144.218404 191.65045 
L 143.584549 188.598198 
L 143.187868 185.545946 
L 143.022233 182.493694 
L 143.084221 179.441441 
L 143.375253 176.389189 
L 143.900229 173.336937 
L 144.668264 170.284685 
L 145.589447 167.50991 
L 146.738961 164.735135 
L 148.138502 161.96036 
L 149.298513 159.992944 
L 149.298513 159.992944 
" style="fill:none;stroke:#fde725;stroke-width:1.5;"/>
   </g>
   <g id="patch_3">
    <path d="M 45 320.4 
L 45 43.2 
" style="fill:none;stroke:#000000;stroke-linecap:square;stroke-linejoin:miter;stroke-width:0.8;"/>
   </g>
   <g id="patch_4">
    <path d="M 324 320.4 
L 324 43.2 
" style="fill:none;stroke:#000000;stroke-linecap:square;stroke-linejoin:miter;stroke-width:0.8;"/>
   </g>
   <g id="patch_5">
    <path d="M 45 320.4 
L 324 320.4 
" style="fill:none;stroke:#000000;stroke-linecap:square;stroke-linejoin:miter;stroke-width:0.8;"/>
   </g>
   <g id="patch_6">
    <path d="M 45 43.2 
L 324 43.2 
" style="fill:none;stroke:#000000;stroke-linecap:square;stroke-linejoin:miter;stroke-width:0.8;"/>
   </g>
   <g id="text_17">
    <g clip-path="url(#p61e580183a)">
     <!-- 0.01 -->
     <defs>
      <path d="M 10.6875 12.40625 
L 21 12.40625 
L 21 0 
L 10.6875 0 
z
" id="DejaVuSans-2e"/>
     </defs>
     <g style="fill:#440154;" transform="translate(88.178424 96.189442)rotate(-43.036515)scale(0.1 -0.1)">
      <use xlink:href="#DejaVuSans-30"/>
      <use x="63.623047" xlink:href="#DejaVuSans-2e"/>
      <use x="95.410156" xlink:href="#DejaVuSans-30"/>
      <use x="159.033203" xlink:href="#DejaVuSans-31"/>
     </g>
    </g>
   </g>
   <g id="text_18">
    <g clip-path="url(#p61e580183a)">
     <!-- 1 -->
     <g style="fill:#460a5d;" transform="translate(249.66196 251.60227)rotate(-44.580872)scale(0.1 -0.1)">
      <use xlink:href="#DejaVuSans-31"/>
     </g>
    </g>
   </g>
   <g id="text_19">
    <g clip-path="url(#p61e580183a)">
     <!-- 10 -->
     <g style="fill:#3b518b;" transform="translate(235.176891 228.070412)rotate(-52.580502)scale(0.1 -0.1)">
      <use xlink:href="#DejaVuSans-31"/>
      <use x="63.623047" xlink:href="#DejaVuSans-30"/>
     </g>
    </g>
   </g>
   <g id="text_20">
    <g clip-path="url(#p61e580183a)">
     <!-- 40 -->
     <defs>
      <path d="M 37.796875 64.3125 
L 12.890625 25.390625 
L 37.796875 25.390625 
z
M 35.203125 72.90625 
L 47.609375 72.90625 
L 47.609375 25.390625 
L 58.015625 25.390625 
L 58.015625 17.1875 
L 47.609375 17.1875 
L 47.609375 0 
L 37.796875 0 
L 37.796875 17.1875 
L 4.890625 17.1875 
L 4.890625 26.703125 
z
" id="DejaVuSans-34"/>
     </defs>
     <g style="fill:#fde725;" transform="translate(152.700998 158.956675)rotate(-44.563632)scale(0.1 -0.1)">
      <use xlink:href="#DejaVuSans-34"/>
      <use x="63.623047" xlink:href="#DejaVuSans-30"/>
     </g>
    </g>
   </g>
  </g>
 </g>
 <defs>
  <clipPath id="p61e580183a">
   <rect height="277.2" width="279" x="45" y="43.2"/>
  </clipPath>
 </defs>
</svg>
