<?xml version="1.0" encoding="utf-8" standalone="no"?>
<!DOCTYPE svg PUBLIC "-//W3C//DTD SVG 1.1//EN"
  "http://www.w3.org/Graphics/SVG/1.1/DTD/svg11.dtd">
<!-- Created with matplotlib (http://matplotlib.org/) -->
<svg height="144pt" version="1.1" viewBox="0 0 360 144" width="360pt" xmlns="http://www.w3.org/2000/svg" xmlns:xlink="http://www.w3.org/1999/xlink">
 <defs>
  <style type="text/css">
*{stroke-linecap:butt;stroke-linejoin:round;}
  </style>
 </defs>
 <g id="figure_1">
  <g id="patch_1">
   <path d="M 0 144 
L 360 144 
L 360 0 
L 0 0 
z
" style="fill:#ffffff;"/>
  </g>
  <g id="axes_1">
   <g id="patch_2">
    <path d="M 0 144 
L 360 144 
L 360 0 
L 0 0 
z
" style="fill:#ffffff;"/>
   </g>
   <g id="matplotlib.axis_1">
    <g id="xtick_1">
     <g id="line2d_1">
      <path clip-path="url(#pb1153ff1cc)" d="M 49.090909 144 
L 49.090909 0 
" style="fill:none;stroke:#b0b0b0;stroke-linecap:square;stroke-width:0.8;"/>
     </g>
     <g id="line2d_2">
      <defs>
       <path d="M 0 0 
L 0 3.5 
" id="m694f235bc1" style="stroke:#000000;stroke-width:0.8;"/>
      </defs>
      <g>
       <use style="stroke:#000000;stroke-width:0.8;" x="49.090909" xlink:href="#m694f235bc1" y="144"/>
      </g>
     </g>
     <g id="text_1">
      <!-- −4 -->
      <defs>
       <path d="M 10.59375 35.5 
L 73.1875 35.5 
L 73.1875 27.203125 
L 10.59375 27.203125 
z
" id="DejaVuSans-2212"/>
       <path d="M 37.796875 64.3125 
L 12.890625 25.390625 
L 37.796875 25.390625 
z
M 35.203125 72.90625 
L 47.609375 72.90625 
L 47.609375 25.390625 
L 58.015625 25.390625 
L 58.015625 17.1875 
L 47.609375 17.1875 
L 47.609375 0 
L 37.796875 0 
L 37.796875 17.1875 
L 4.890625 17.1875 
L 4.890625 26.703125 
z
" id="DejaVuSans-34"/>
      </defs>
      <g transform="translate(41.719815 158.598437)scale(0.1 -0.1)">
       <use xlink:href="#DejaVuSans-2212"/>
       <use x="83.789062" xlink:href="#DejaVuSans-34"/>
      </g>
     </g>
    </g>
    <g id="xtick_2">
     <g id="line2d_3">
      <path clip-path="url(#pb1153ff1cc)" d="M 114.545455 144 
L 114.545455 0 
" style="fill:none;stroke:#b0b0b0;stroke-linecap:square;stroke-width:0.8;"/>
     </g>
     <g id="line2d_4">
      <g>
       <use style="stroke:#000000;stroke-width:0.8;" x="114.545455" xlink:href="#m694f235bc1" y="144"/>
      </g>
     </g>
     <g id="text_2">
      <!-- −2 -->
      <defs>
       <path d="M 19.1875 8.296875 
L 53.609375 8.296875 
L 53.609375 0 
L 7.328125 0 
L 7.328125 8.296875 
Q 12.9375 14.109375 22.625 23.890625 
Q 32.328125 33.6875 34.8125 36.53125 
Q 39.546875 41.84375 41.421875 45.53125 
Q 43.3125 49.21875 43.3125 52.78125 
Q 43.3125 58.59375 39.234375 62.25 
Q 35.15625 65.921875 28.609375 65.921875 
Q 23.96875 65.921875 18.8125 64.3125 
Q 13.671875 62.703125 7.8125 59.421875 
L 7.8125 69.390625 
Q 13.765625 71.78125 18.9375 73 
Q 24.125 74.21875 28.421875 74.21875 
Q 39.75 74.21875 46.484375 68.546875 
Q 53.21875 62.890625 53.21875 53.421875 
Q 53.21875 48.921875 51.53125 44.890625 
Q 49.859375 40.875 45.40625 35.40625 
Q 44.1875 33.984375 37.640625 27.21875 
Q 31.109375 20.453125 19.1875 8.296875 
z
" id="DejaVuSans-32"/>
      </defs>
      <g transform="translate(107.174361 158.598437)scale(0.1 -0.1)">
       <use xlink:href="#DejaVuSans-2212"/>
       <use x="83.789062" xlink:href="#DejaVuSans-32"/>
      </g>
     </g>
    </g>
    <g id="xtick_3">
     <g id="line2d_5">
      <path clip-path="url(#pb1153ff1cc)" d="M 180 144 
L 180 0 
" style="fill:none;stroke:#b0b0b0;stroke-linecap:square;stroke-width:0.8;"/>
     </g>
     <g id="line2d_6">
      <g>
       <use style="stroke:#000000;stroke-width:0.8;" x="180" xlink:href="#m694f235bc1" y="144"/>
      </g>
     </g>
     <g id="text_3">
      <!-- 0 -->
      <defs>
       <path d="M 31.78125 66.40625 
Q 24.171875 66.40625 20.328125 58.90625 
Q 16.5 51.421875 16.5 36.375 
Q 16.5 21.390625 20.328125 13.890625 
Q 24.171875 6.390625 31.78125 6.390625 
Q 39.453125 6.390625 43.28125 13.890625 
Q 47.125 21.390625 47.125 36.375 
Q 47.125 51.421875 43.28125 58.90625 
Q 39.453125 66.40625 31.78125 66.40625 
z
M 31.78125 74.21875 
Q 44.046875 74.21875 50.515625 64.515625 
Q 56.984375 54.828125 56.984375 36.375 
Q 56.984375 17.96875 50.515625 8.265625 
Q 44.046875 -1.421875 31.78125 -1.421875 
Q 19.53125 -1.421875 13.0625 8.265625 
Q 6.59375 17.96875 6.59375 36.375 
Q 6.59375 54.828125 13.0625 64.515625 
Q 19.53125 74.21875 31.78125 74.21875 
z
" id="DejaVuSans-30"/>
      </defs>
      <g transform="translate(176.81875 158.598437)scale(0.1 -0.1)">
       <use xlink:href="#DejaVuSans-30"/>
      </g>
     </g>
    </g>
    <g id="xtick_4">
     <g id="line2d_7">
      <path clip-path="url(#pb1153ff1cc)" d="M 245.454545 144 
L 245.454545 0 
" style="fill:none;stroke:#b0b0b0;stroke-linecap:square;stroke-width:0.8;"/>
     </g>
     <g id="line2d_8">
      <g>
       <use style="stroke:#000000;stroke-width:0.8;" x="245.454545" xlink:href="#m694f235bc1" y="144"/>
      </g>
     </g>
     <g id="text_4">
      <!-- 2 -->
      <g transform="translate(242.273295 158.598437)scale(0.1 -0.1)">
       <use xlink:href="#DejaVuSans-32"/>
      </g>
     </g>
    </g>
    <g id="xtick_5">
     <g id="line2d_9">
      <path clip-path="url(#pb1153ff1cc)" d="M 310.909091 144 
L 310.909091 0 
" style="fill:none;stroke:#b0b0b0;stroke-linecap:square;stroke-width:0.8;"/>
     </g>
     <g id="line2d_10">
      <g>
       <use style="stroke:#000000;stroke-width:0.8;" x="310.909091" xlink:href="#m694f235bc1" y="144"/>
      </g>
     </g>
     <g id="text_5">
      <!-- 4 -->
      <g transform="translate(307.727841 158.598437)scale(0.1 -0.1)">
       <use xlink:href="#DejaVuSans-34"/>
      </g>
     </g>
    </g>
   </g>
   <g id="matplotlib.axis_2">
    <g id="ytick_1">
     <g id="line2d_11">
      <path clip-path="url(#pb1153ff1cc)" d="M 0 137.454545 
L 360 137.454545 
" style="fill:none;stroke:#b0b0b0;stroke-linecap:square;stroke-width:0.8;"/>
     </g>
     <g id="line2d_12">
      <defs>
       <path d="M 0 0 
L -3.5 0 
" id="mdf3cfed6e0" style="stroke:#000000;stroke-width:0.8;"/>
      </defs>
      <g>
       <use style="stroke:#000000;stroke-width:0.8;" x="0" xlink:href="#mdf3cfed6e0" y="137.454545"/>
      </g>
     </g>
     <g id="text_6">
      <!-- 0 -->
      <g transform="translate(-13.3625 141.253764)scale(0.1 -0.1)">
       <use xlink:href="#DejaVuSans-30"/>
      </g>
     </g>
    </g>
    <g id="ytick_2">
     <g id="line2d_13">
      <path clip-path="url(#pb1153ff1cc)" d="M 0 111.272727 
L 360 111.272727 
" style="fill:none;stroke:#b0b0b0;stroke-linecap:square;stroke-width:0.8;"/>
     </g>
     <g id="line2d_14">
      <g>
       <use style="stroke:#000000;stroke-width:0.8;" x="0" xlink:href="#mdf3cfed6e0" y="111.272727"/>
      </g>
     </g>
     <g id="text_7">
      <!-- 2 -->
      <g transform="translate(-13.3625 115.071946)scale(0.1 -0.1)">
       <use xlink:href="#DejaVuSans-32"/>
      </g>
     </g>
    </g>
    <g id="ytick_3">
     <g id="line2d_15">
      <path clip-path="url(#pb1153ff1cc)" d="M 0 85.090909 
L 360 85.090909 
" style="fill:none;stroke:#b0b0b0;stroke-linecap:square;stroke-width:0.8;"/>
     </g>
     <g id="line2d_16">
      <g>
       <use style="stroke:#000000;stroke-width:0.8;" x="0" xlink:href="#mdf3cfed6e0" y="85.090909"/>
      </g>
     </g>
     <g id="text_8">
      <!-- 4 -->
      <g transform="translate(-13.3625 88.890128)scale(0.1 -0.1)">
       <use xlink:href="#DejaVuSans-34"/>
      </g>
     </g>
    </g>
    <g id="ytick_4">
     <g id="line2d_17">
      <path clip-path="url(#pb1153ff1cc)" d="M 0 58.909091 
L 360 58.909091 
" style="fill:none;stroke:#b0b0b0;stroke-linecap:square;stroke-width:0.8;"/>
     </g>
     <g id="line2d_18">
      <g>
       <use style="stroke:#000000;stroke-width:0.8;" x="0" xlink:href="#mdf3cfed6e0" y="58.909091"/>
      </g>
     </g>
     <g id="text_9">
      <!-- 6 -->
      <defs>
       <path d="M 33.015625 40.375 
Q 26.375 40.375 22.484375 35.828125 
Q 18.609375 31.296875 18.609375 23.390625 
Q 18.609375 15.53125 22.484375 10.953125 
Q 26.375 6.390625 33.015625 6.390625 
Q 39.65625 6.390625 43.53125 10.953125 
Q 47.40625 15.53125 47.40625 23.390625 
Q 47.40625 31.296875 43.53125 35.828125 
Q 39.65625 40.375 33.015625 40.375 
z
M 52.59375 71.296875 
L 52.59375 62.3125 
Q 48.875 64.0625 45.09375 64.984375 
Q 41.3125 65.921875 37.59375 65.921875 
Q 27.828125 65.921875 22.671875 59.328125 
Q 17.53125 52.734375 16.796875 39.40625 
Q 19.671875 43.65625 24.015625 45.921875 
Q 28.375 48.1875 33.59375 48.1875 
Q 44.578125 48.1875 50.953125 41.515625 
Q 57.328125 34.859375 57.328125 23.390625 
Q 57.328125 12.15625 50.6875 5.359375 
Q 44.046875 -1.421875 33.015625 -1.421875 
Q 20.359375 -1.421875 13.671875 8.265625 
Q 6.984375 17.96875 6.984375 36.375 
Q 6.984375 53.65625 15.1875 63.9375 
Q 23.390625 74.21875 37.203125 74.21875 
Q 40.921875 74.21875 44.703125 73.484375 
Q 48.484375 72.75 52.59375 71.296875 
z
" id="DejaVuSans-36"/>
      </defs>
      <g transform="translate(-13.3625 62.70831)scale(0.1 -0.1)">
       <use xlink:href="#DejaVuSans-36"/>
      </g>
     </g>
    </g>
    <g id="ytick_5">
     <g id="line2d_19">
      <path clip-path="url(#pb1153ff1cc)" d="M 0 32.727273 
L 360 32.727273 
" style="fill:none;stroke:#b0b0b0;stroke-linecap:square;stroke-width:0.8;"/>
     </g>
     <g id="line2d_20">
      <g>
       <use style="stroke:#000000;stroke-width:0.8;" x="0" xlink:href="#mdf3cfed6e0" y="32.727273"/>
      </g>
     </g>
     <g id="text_10">
      <!-- 8 -->
      <defs>
       <path d="M 31.78125 34.625 
Q 24.75 34.625 20.71875 30.859375 
Q 16.703125 27.09375 16.703125 20.515625 
Q 16.703125 13.921875 20.71875 10.15625 
Q 24.75 6.390625 31.78125 6.390625 
Q 38.8125 6.390625 42.859375 10.171875 
Q 46.921875 13.96875 46.921875 20.515625 
Q 46.921875 27.09375 42.890625 30.859375 
Q 38.875 34.625 31.78125 34.625 
z
M 21.921875 38.8125 
Q 15.578125 40.375 12.03125 44.71875 
Q 8.5 49.078125 8.5 55.328125 
Q 8.5 64.0625 14.71875 69.140625 
Q 20.953125 74.21875 31.78125 74.21875 
Q 42.671875 74.21875 48.875 69.140625 
Q 55.078125 64.0625 55.078125 55.328125 
Q 55.078125 49.078125 51.53125 44.71875 
Q 48 40.375 41.703125 38.8125 
Q 48.828125 37.15625 52.796875 32.3125 
Q 56.78125 27.484375 56.78125 20.515625 
Q 56.78125 9.90625 50.3125 4.234375 
Q 43.84375 -1.421875 31.78125 -1.421875 
Q 19.734375 -1.421875 13.25 4.234375 
Q 6.78125 9.90625 6.78125 20.515625 
Q 6.78125 27.484375 10.78125 32.3125 
Q 14.796875 37.15625 21.921875 38.8125 
z
M 18.3125 54.390625 
Q 18.3125 48.734375 21.84375 45.5625 
Q 25.390625 42.390625 31.78125 42.390625 
Q 38.140625 42.390625 41.71875 45.5625 
Q 45.3125 48.734375 45.3125 54.390625 
Q 45.3125 60.0625 41.71875 63.234375 
Q 38.140625 66.40625 31.78125 66.40625 
Q 25.390625 66.40625 21.84375 63.234375 
Q 18.3125 60.0625 18.3125 54.390625 
z
" id="DejaVuSans-38"/>
      </defs>
      <g transform="translate(-13.3625 36.526491)scale(0.1 -0.1)">
       <use xlink:href="#DejaVuSans-38"/>
      </g>
     </g>
    </g>
    <g id="ytick_6">
     <g id="line2d_21">
      <path clip-path="url(#pb1153ff1cc)" d="M 0 6.545455 
L 360 6.545455 
" style="fill:none;stroke:#b0b0b0;stroke-linecap:square;stroke-width:0.8;"/>
     </g>
     <g id="line2d_22">
      <g>
       <use style="stroke:#000000;stroke-width:0.8;" x="0" xlink:href="#mdf3cfed6e0" y="6.545455"/>
      </g>
     </g>
     <g id="text_11">
      <!-- 10 -->
      <defs>
       <path d="M 12.40625 8.296875 
L 28.515625 8.296875 
L 28.515625 63.921875 
L 10.984375 60.40625 
L 10.984375 69.390625 
L 28.421875 72.90625 
L 38.28125 72.90625 
L 38.28125 8.296875 
L 54.390625 8.296875 
L 54.390625 0 
L 12.40625 0 
z
" id="DejaVuSans-31"/>
      </defs>
      <g transform="translate(-19.725 10.344673)scale(0.1 -0.1)">
       <use xlink:href="#DejaVuSans-31"/>
       <use x="63.623047" xlink:href="#DejaVuSans-30"/>
      </g>
     </g>
    </g>
   </g>
   <g id="line2d_23">
    <path clip-path="url(#pb1153ff1cc)" d="M 16.363636 137.454545 
L 18.016529 137.454545 
L 19.669421 137.454545 
L 21.322314 137.454545 
L 22.975207 137.454545 
L 24.628099 137.454545 
L 26.280992 137.454545 
L 27.933884 137.454545 
L 29.586777 137.454545 
L 31.239669 137.454545 
L 32.892562 137.454545 
L 34.545455 137.454545 
L 36.198347 137.454545 
L 37.85124 137.454545 
L 39.504132 137.454545 
L 41.157025 137.454545 
L 42.809917 137.454545 
L 44.46281 137.454545 
L 46.115702 137.454545 
L 47.768595 137.454545 
L 49.421488 137.454545 
L 51.07438 137.454545 
L 52.727273 137.454545 
L 54.380165 137.454545 
L 56.033058 137.454545 
L 57.68595 137.454545 
L 59.338843 137.454545 
L 60.991736 137.454545 
L 62.644628 137.454545 
L 64.297521 137.454545 
L 65.950413 137.454545 
L 67.603306 137.454545 
L 69.256198 137.454545 
L 70.909091 137.454545 
L 72.561983 137.454545 
L 74.214876 137.454545 
L 75.867769 137.454545 
L 77.520661 137.454545 
L 79.173554 137.454545 
L 80.826446 137.454545 
L 82.479339 137.454545 
L 84.132231 137.454545 
L 85.785124 137.454545 
L 87.438017 137.454545 
L 89.090909 137.454545 
L 90.743802 137.454545 
L 92.396694 137.454545 
L 94.049587 137.454545 
L 95.702479 137.454545 
L 97.355372 137.454545 
L 99.008264 137.454545 
L 100.661157 137.454545 
L 102.31405 137.454545 
L 103.966942 137.454545 
L 105.619835 137.454545 
L 107.272727 137.454545 
L 108.92562 137.454545 
L 110.578512 137.454545 
L 112.231405 137.454545 
L 113.884298 137.454545 
L 115.53719 137.454545 
L 117.190083 137.454545 
L 118.842975 137.454545 
L 120.495868 137.454545 
L 122.14876 137.454545 
L 123.801653 137.454545 
L 125.454545 137.454545 
L 127.107438 137.454545 
L 128.760331 137.454545 
L 130.413223 137.454545 
L 132.066116 137.454545 
L 133.719008 137.454545 
L 135.371901 137.454545 
L 137.024793 137.454545 
L 138.677686 137.454545 
L 140.330579 137.454545 
L 141.983471 137.454545 
L 143.636364 137.454545 
L 145.289256 137.454545 
L 146.942149 137.454545 
L 148.595041 137.454545 
L 150.247934 137.454545 
L 151.900826 137.454545 
L 153.553719 137.454545 
L 155.206612 137.454545 
L 156.859504 137.454545 
L 158.512397 137.454545 
L 160.165289 137.454545 
L 161.818182 137.454545 
L 163.471074 137.454545 
L 165.123967 137.454545 
L 166.77686 137.454545 
L 168.429752 137.454545 
L 170.082645 137.454545 
L 171.735537 137.454545 
L 173.38843 137.454545 
L 175.041322 137.454545 
L 176.694215 137.454545 
L 178.347107 137.454545 
L 180 137.454545 
" style="fill:none;stroke:#1f77b4;stroke-linecap:square;stroke-width:1.5;"/>
   </g>
   <g id="line2d_24">
    <path clip-path="url(#pb1153ff1cc)" d="M 180 137.454545 
L 181.652893 136.132231 
L 183.305785 134.809917 
L 184.958678 133.487603 
L 186.61157 132.165289 
L 188.264463 130.842975 
L 189.917355 129.520661 
L 191.570248 128.198347 
L 193.22314 126.876033 
L 194.876033 125.553719 
L 196.528926 124.231405 
L 198.181818 122.909091 
L 199.834711 121.586777 
L 201.487603 120.264463 
L 203.140496 118.942149 
L 204.793388 117.619835 
L 206.446281 116.297521 
L 208.099174 114.975207 
L 209.752066 113.652893 
L 211.404959 112.330579 
L 213.057851 111.008264 
L 214.710744 109.68595 
L 216.363636 108.363636 
L 218.016529 107.041322 
L 219.669421 105.719008 
L 221.322314 104.396694 
L 222.975207 103.07438 
L 224.628099 101.752066 
L 226.280992 100.429752 
L 227.933884 99.107438 
L 229.586777 97.785124 
L 231.239669 96.46281 
L 232.892562 95.140496 
L 234.545455 93.818182 
L 236.198347 92.495868 
L 237.85124 91.173554 
L 239.504132 89.85124 
L 241.157025 88.528926 
L 242.809917 87.206612 
L 244.46281 85.884298 
L 246.115702 84.561983 
L 247.768595 83.239669 
L 249.421488 81.917355 
L 251.07438 80.595041 
L 252.727273 79.272727 
L 254.380165 77.950413 
L 256.033058 76.628099 
L 257.68595 75.305785 
L 259.338843 73.983471 
L 260.991736 72.661157 
L 262.644628 71.338843 
L 264.297521 70.016529 
L 265.950413 68.694215 
L 267.603306 67.371901 
L 269.256198 66.049587 
L 270.909091 64.727273 
L 272.561983 63.404959 
L 274.214876 62.082645 
L 275.867769 60.760331 
L 277.520661 59.438017 
L 279.173554 58.115702 
L 280.826446 56.793388 
L 282.479339 55.471074 
L 284.132231 54.14876 
L 285.785124 52.826446 
L 287.438017 51.504132 
L 289.090909 50.181818 
L 290.743802 48.859504 
L 292.396694 47.53719 
L 294.049587 46.214876 
L 295.702479 44.892562 
L 297.355372 43.570248 
L 299.008264 42.247934 
L 300.661157 40.92562 
L 302.31405 39.603306 
L 303.966942 38.280992 
L 305.619835 36.958678 
L 307.272727 35.636364 
L 308.92562 34.31405 
L 310.578512 32.991736 
L 312.231405 31.669421 
L 313.884298 30.347107 
L 315.53719 29.024793 
L 317.190083 27.702479 
L 318.842975 26.380165 
L 320.495868 25.057851 
L 322.14876 23.735537 
L 323.801653 22.413223 
L 325.454545 21.090909 
L 327.107438 19.768595 
L 328.760331 18.446281 
L 330.413223 17.123967 
L 332.066116 15.801653 
L 333.719008 14.479339 
L 335.371901 13.157025 
L 337.024793 11.834711 
L 338.677686 10.512397 
L 340.330579 9.190083 
L 341.983471 7.867769 
L 343.636364 6.545455 
" style="fill:none;stroke:#ff7f0e;stroke-linecap:square;stroke-width:1.5;"/>
   </g>
   <g id="patch_3">
    <path d="M 0 144 
L 0 0 
" style="fill:none;stroke:#000000;stroke-linecap:square;stroke-linejoin:miter;stroke-width:0.8;"/>
   </g>
   <g id="patch_4">
    <path d="M 360 144 
L 360 0 
" style="fill:none;stroke:#000000;stroke-linecap:square;stroke-linejoin:miter;stroke-width:0.8;"/>
   </g>
   <g id="patch_5">
    <path d="M 0 144 
L 360 144 
" style="fill:none;stroke:#000000;stroke-linecap:square;stroke-linejoin:miter;stroke-width:0.8;"/>
   </g>
   <g id="patch_6">
    <path d="M 0 0 
L 360 0 
" style="fill:none;stroke:#000000;stroke-linecap:square;stroke-linejoin:miter;stroke-width:0.8;"/>
   </g>
   <g id="legend_1">
    <g id="patch_7">
     <path d="M 7 40 
L 57.1 40 
Q 59.1 40 59.1 38 
L 59.1 7 
Q 59.1 5 57.1 5 
L 7 5 
Q 5 5 5 7 
L 5 38 
Q 5 40 7 40 
z
" style="fill:#ffffff;opacity:0.8;stroke:#cccccc;stroke-linejoin:miter;"/>
    </g>
    <g id="line2d_25">
     <path d="M 9 14.4 
L 29 14.4 
" style="fill:none;stroke:#1f77b4;stroke-linecap:square;stroke-width:1.5;"/>
    </g>
    <g id="line2d_26"/>
    <g id="text_12">
     <!-- $\,\,\, \underbar \!\!\!\dot{p}(t)$ -->
     <defs>
      <path d="M -39.34375 -8.484375 
L -10.15625 -8.484375 
L -10.15625 -15.71875 
L -39.34375 -15.71875 
z
" id="DejaVuSans-331"/>
      <path d="M -29.59375 75.984375 
L -20.609375 75.984375 
L -20.609375 64.59375 
L -29.59375 64.59375 
z
M -25 56 
z
" id="DejaVuSans-307"/>
      <path d="M 49.609375 33.6875 
Q 49.609375 40.875 46.484375 44.671875 
Q 43.359375 48.484375 37.5 48.484375 
Q 33.5 48.484375 29.859375 46.4375 
Q 26.21875 44.390625 23.390625 40.484375 
Q 20.609375 36.625 18.9375 31.15625 
Q 17.28125 25.6875 17.28125 20.3125 
Q 17.28125 13.484375 20.40625 9.796875 
Q 23.53125 6.109375 29.296875 6.109375 
Q 33.546875 6.109375 37.1875 8.109375 
Q 40.828125 10.109375 43.40625 13.921875 
Q 46.1875 17.921875 47.890625 23.34375 
Q 49.609375 28.765625 49.609375 33.6875 
z
M 21.78125 46.390625 
Q 25.390625 51.125 30.296875 53.5625 
Q 35.203125 56 41.21875 56 
Q 49.609375 56 54.25 50.5 
Q 58.890625 45.015625 58.890625 35.109375 
Q 58.890625 27 56 19.65625 
Q 53.125 12.3125 47.703125 6.5 
Q 44.09375 2.640625 39.546875 0.609375 
Q 35.015625 -1.421875 29.984375 -1.421875 
Q 24.171875 -1.421875 20.21875 1 
Q 16.265625 3.421875 14.3125 8.203125 
L 8.6875 -20.796875 
L -0.296875 -20.796875 
L 14.40625 54.6875 
L 23.390625 54.6875 
z
" id="DejaVuSans-Oblique-70"/>
      <path d="M 31 75.875 
Q 24.46875 64.65625 21.28125 53.65625 
Q 18.109375 42.671875 18.109375 31.390625 
Q 18.109375 20.125 21.3125 9.0625 
Q 24.515625 -2 31 -13.1875 
L 23.1875 -13.1875 
Q 15.875 -1.703125 12.234375 9.375 
Q 8.59375 20.453125 8.59375 31.390625 
Q 8.59375 42.28125 12.203125 53.3125 
Q 15.828125 64.359375 23.1875 75.875 
z
" id="DejaVuSans-28"/>
      <path d="M 42.28125 54.6875 
L 40.921875 47.703125 
L 23 47.703125 
L 17.1875 18.015625 
Q 16.890625 16.359375 16.75 15.234375 
Q 16.609375 14.109375 16.609375 13.484375 
Q 16.609375 10.359375 18.484375 8.9375 
Q 20.359375 7.515625 24.515625 7.515625 
L 33.59375 7.515625 
L 32.078125 0 
L 23.484375 0 
Q 15.484375 0 11.546875 3.125 
Q 7.625 6.25 7.625 12.59375 
Q 7.625 13.71875 7.765625 15.0625 
Q 7.90625 16.40625 8.203125 18.015625 
L 14.015625 47.703125 
L 6.390625 47.703125 
L 7.8125 54.6875 
L 15.28125 54.6875 
L 18.3125 70.21875 
L 27.296875 70.21875 
L 24.3125 54.6875 
z
" id="DejaVuSans-Oblique-74"/>
      <path d="M 8.015625 75.875 
L 15.828125 75.875 
Q 23.140625 64.359375 26.78125 53.3125 
Q 30.421875 42.28125 30.421875 31.390625 
Q 30.421875 20.453125 26.78125 9.375 
Q 23.140625 -1.703125 15.828125 -13.1875 
L 8.015625 -13.1875 
Q 14.5 -2 17.703125 9.0625 
Q 20.90625 20.125 20.90625 31.390625 
Q 20.90625 42.671875 17.703125 53.65625 
Q 14.5 64.65625 8.015625 75.875 
z
" id="DejaVuSans-29"/>
     </defs>
     <g transform="translate(37 17.9)scale(0.1 -0.1)">
      <use transform="translate(48.707029 0.515625)" xlink:href="#DejaVuSans-331"/>
      <use transform="translate(64.462891 13.015625)" xlink:href="#DejaVuSans-307"/>
      <use transform="translate(-0 0.515625)" xlink:href="#DejaVuSans-Oblique-70"/>
      <use transform="translate(63.476562 0.515625)" xlink:href="#DejaVuSans-28"/>
      <use transform="translate(102.490234 0.515625)" xlink:href="#DejaVuSans-Oblique-74"/>
      <use transform="translate(141.699219 0.515625)" xlink:href="#DejaVuSans-29"/>
     </g>
    </g>
    <g id="line2d_27">
     <path d="M 9 30.4 
L 29 30.4 
" style="fill:none;stroke:#ff7f0e;stroke-linecap:square;stroke-width:1.5;"/>
    </g>
    <g id="line2d_28"/>
    <g id="text_13">
     <!-- $\dot{p}(t)$ -->
     <g transform="translate(37 33.9)scale(0.1 -0.1)">
      <use transform="translate(64.462891 13.015625)" xlink:href="#DejaVuSans-307"/>
      <use transform="translate(0 0.515625)" xlink:href="#DejaVuSans-Oblique-70"/>
      <use transform="translate(63.476562 0.515625)" xlink:href="#DejaVuSans-28"/>
      <use transform="translate(102.490234 0.515625)" xlink:href="#DejaVuSans-Oblique-74"/>
      <use transform="translate(141.699219 0.515625)" xlink:href="#DejaVuSans-29"/>
     </g>
    </g>
   </g>
  </g>
 </g>
 <defs>
  <clipPath id="pb1153ff1cc">
   <rect height="144" width="360" x="0" y="0"/>
  </clipPath>
 </defs>
</svg>
